<?xml version="1.0" encoding="utf-8"?>
<!-- Generator: Adobe Illustrator 17.0.0, SVG Export Plug-In . SVG Version: 6.00 Build 0)  -->
<!DOCTYPE svg PUBLIC "-//W3C//DTD SVG 1.1//EN" "http://www.w3.org/Graphics/SVG/1.1/DTD/svg11.dtd">
<svg version="1.1" id="Layer_1" xmlns="http://www.w3.org/2000/svg" xmlns:xlink="http://www.w3.org/1999/xlink" x="0px" y="0px"
	 width="512px" height="512px" viewBox="0 0 512 512" enable-background="new 0 0 512 512" xml:space="preserve">
<path fill-rule="evenodd" clip-rule="evenodd" fill="#FFFFFF" d="M256-0.844C114.975-0.844,0.656,114.147,0.656,256
	c0,141.849,114.319,256.843,255.343,256.843c141.019,0,255.344-114.994,255.344-256.843C511.344,114.147,397.019-0.844,256-0.844z
	 M410.67,200.271v150.509c0,11.598-9.402,21-21,21h-49.005V252.771l-84,63.001l-84.002-63.001V371.78h-49.004
	c-11.598,0-21-9.402-21-21V200.271v-27.994c0-6.815,2.211-13.448,6.3-18.9c10.438-13.918,30.183-16.739,44.101-6.3l19.604,14.7
	l84.002,63.001l84-63.001l19.604-14.7c5.454-4.09,12.085-6.3,18.899-6.3c17.398,0,31.502,14.103,31.502,31.5V200.271z"/>
</svg>
