<?xml version="1.0" encoding="utf-8"?>
<!-- Generator: Adobe Illustrator 17.0.0, SVG Export Plug-In . SVG Version: 6.00 Build 0)  -->

<!DOCTYPE svg PUBLIC "-//W3C//DTD SVG 1.1//EN" "http://www.w3.org/Graphics/SVG/1.1/DTD/svg11.dtd">
<svg version="1.1" id="Layer_1" xmlns="http://www.w3.org/2000/svg" xmlns:xlink="http://www.w3.org/1999/xlink" x="0px" y="0px"
	 width="512px" height="512px" viewBox="0 0 512 512" enable-background="new 0 0 512 512" xml:space="preserve">
<path class="icon"  fill="#2DAFD0" d="M255,0C114.167,0,0,114.615,0,256s114.167,256,255,256s255-114.615,255-256S395.833,0,255,0z
	 M360.448,190.081c0.095,2.067,0.138,4.145,0.138,6.233c0,63.708-48.497,137.179-137.18,137.179
	c-27.232,0-52.567-7.982-73.906-21.656c3.774,0.445,7.611,0.668,11.501,0.668c22.589,0,43.377-7.706,59.882-20.638
	c-21.105-0.393-38.903-14.332-45.041-33.487c2.936,0.562,5.957,0.87,9.063,0.87c4.399,0,8.661-0.594,12.71-1.696
	c-22.059-4.421-38.681-23.915-38.681-47.268c0-0.212,0-0.413,0.011-0.615c6.498,3.615,13.929,5.788,21.837,6.031
	c-12.943-8.639-21.455-23.405-21.455-40.133c0-8.83,2.385-17.109,6.53-24.233c23.777,29.172,59.309,48.359,99.379,50.373
	c-0.827-3.53-1.251-7.209-1.251-10.993c0-26.617,21.593-48.21,48.221-48.21c13.865,0,26.395,5.862,35.193,15.233
	c10.982-2.163,21.296-6.18,30.614-11.703c-3.604,11.258-11.247,20.703-21.201,26.67c9.752-1.166,19.049-3.753,27.688-7.59
	C378.044,174.785,369.861,183.276,360.448,190.081z"/>
</svg>
